<?xml version="1.0" standalone="no"?>
<!DOCTYPE svg PUBLIC "-//W3C//DTD SVG 20010904//EN"
 "http://www.w3.org/TR/2001/REC-SVG-20010904/DTD/svg10.dtd">
<svg version="1.0" xmlns="http://www.w3.org/2000/svg"
 width="250.000000pt" height="50.000000pt" viewBox="0 0 250.000000 50.000000"
 preserveAspectRatio="xMidYMid meet">

<g transform="translate(0.000000,50.000000) scale(0.100000,-0.100000)"
fill="#000000" stroke="none">
<path d="M73 425 c-18 -8 -33 -16 -33 -19 0 -2 18 -55 41 -118 32 -90 40 -123
36 -161 l-4 -47 43 0 42 0 -3 62 c-3 53 -2 56 4 23 8 -40 8 -40 10 -7 0 18 19
78 42 132 22 55 38 104 34 110 -3 5 -1 10 4 10 6 0 11 5 11 10 0 6 -17 10 -39
10 -38 0 -39 -1 -68 -67 l-29 -67 -23 65 c-13 35 -26 67 -30 71 -3 4 -21 0
-38 -7z m194 -11 c-3 -3 -12 -4 -19 -1 -8 3 -5 6 6 6 11 1 17 -2 13 -5z"/>
<path d="M392 415 c-76 -64 -94 -238 -32 -305 38 -41 104 -43 149 -4 76 64 82
267 10 318 -35 24 -92 21 -127 -9z m86 -116 c4 -81 -12 -139 -38 -139 -28 0
-35 39 -22 117 19 112 55 126 60 22z"/>
<path d="M2256 419 c-39 -30 -58 -74 -66 -152 -14 -124 22 -187 106 -187 39 0
51 5 79 33 73 73 75 260 4 311 -33 23 -91 20 -123 -5z m86 -85 c16 -56 -12
-174 -42 -174 -25 0 -32 37 -21 115 14 95 45 124 63 59z"/>
<path d="M658 423 c-33 -4 -38 -8 -42 -36 -5 -29 -26 -274 -26 -297 0 -6 40
-10 96 -10 92 0 97 1 125 29 33 33 40 92 15 126 -12 17 -12 22 5 44 12 15 19
40 19 67 0 75 -42 92 -192 77z m92 -93 c0 -18 -26 -40 -49 -40 -19 0 -12 48 7
53 34 9 42 7 42 -13z m-16 -148 c-6 -9 -21 -18 -33 -20 -30 -5 -29 36 2 47 29
11 45 -3 31 -27z m-67 -74 c-3 -8 -6 -5 -6 6 -1 11 2 17 5 13 3 -3 4 -12 1
-19z"/>
<path d="M981 408 c-5 -13 -19 -48 -31 -78 -23 -56 -80 -229 -80 -242 0 -5 23
-8 50 -8 35 0 50 4 50 13 0 23 24 44 58 51 31 5 32 5 32 -29 l0 -35 50 0 c33
0 50 4 50 13 0 20 -39 226 -51 270 -15 58 -25 67 -75 67 -37 0 -46 -4 -53 -22z
m59 -153 c0 -26 -4 -35 -16 -35 -12 0 -15 6 -10 23 3 12 6 28 6 35 0 6 5 12
10 12 6 0 10 -16 10 -35z m85 -135 c7 -22 6 -23 -9 -11 -9 7 -16 25 -16 40 1
29 11 17 25 -29z"/>
<path d="M1393 395 c-31 -31 -34 -39 -31 -82 3 -45 6 -50 56 -87 62 -47 72
-81 20 -73 -18 3 -42 8 -54 12 -16 5 -23 0 -32 -20 -7 -14 -12 -28 -12 -31 0
-13 75 -34 120 -34 40 0 56 5 75 24 52 52 43 113 -26 164 -53 41 -67 65 -49
87 16 19 30 10 30 -21 0 -21 4 -24 40 -24 l40 0 0 40 c0 57 -26 80 -91 80 -45
0 -55 -4 -86 -35z"/>
<path d="M1690 383 c-27 -60 -85 -227 -95 -271 l-7 -32 51 0 c43 0 51 3 51 19
0 24 17 37 58 44 31 6 32 6 32 -28 l0 -35 51 0 51 0 -7 43 c-20 126 -55 280
-65 292 -8 9 -30 15 -56 15 -42 0 -44 -1 -64 -47z m70 -128 c0 -24 -5 -35 -15
-35 -16 0 -18 12 -9 48 10 34 24 26 24 -13z m85 -135 c8 -24 7 -25 -13 -7 -13
12 -18 26 -14 39 5 22 13 13 27 -32z"/>
<path d="M1968 423 c-42 -5 -42 -7 -53 -163 -3 -47 -8 -106 -11 -132 l-6 -48
97 0 c93 0 97 1 126 29 33 33 40 92 15 126 -12 17 -12 22 5 44 12 15 19 40 19
67 0 75 -43 92 -192 77z m92 -93 c0 -18 -26 -40 -49 -40 -19 0 -12 48 7 53 34
9 42 7 42 -13z m-16 -148 c-6 -9 -20 -18 -31 -20 -17 -3 -20 1 -16 22 5 26 31
39 48 24 6 -6 6 -15 -1 -26z"/>
</g>
</svg>
